<?xml version="1.0" encoding="UTF-8"?><svg xmlns="http://www.w3.org/2000/svg" viewBox="0 0 88.09 52"><defs><style>.d{fill:#4d5f80;}.e{fill:#000f9f;}</style></defs><g id="a"/><g id="b"><g id="c"><g><path class="d" d="M28.79,47.39l25.83-10.64-.16-.29c-15.58,3.97-36.05-1.94-36.89-9.97-.13-6.82,2.41-13.68,7.61-18.88C29.25,3.55,34.34,1.11,39.62,.3l.09-.3H18.73c-.81,0-1.16,.35-1.16,1.16h0V21.45L.6,27.83c-.76,.29-.79,.6-.12,1.04l7.46,4.88h0l1.05,.69h0l2.65,1.72c3.24,2.12,9.17,5.47,10.21,6.03l-.07,.19c-.41-.09-2.59-.87-3.97-1.08l-.25-.04v9.57c0,.81,.35,1.16,1.16,1.16h20.99l-.09-.3c-3.82-.58-7.53-2.02-10.83-4.31Z"/><path class="d" d="M87.57,22.22l-16.93-9.18-.1,.22c-.62,1.34-1.19,3.72-1.34,4.13l-.21-.05c.1-1.24,.57-8.42,.57-12.49V1.16c0-.81-.35-1.16-1.16-1.16h-20.99l.09,.3c5.28,.81,10.37,3.24,14.44,7.31,5.07,5.07,7.61,11.72,7.61,18.37h0s0,3.25-6.38,6.92l.16,.25,5.77-2.38c-.93,4.98-3.32,9.75-7.17,13.6-4.07,4.07-9.15,6.51-14.44,7.31l-.09,.3h20.99c.81,0,1.16-.35,1.16-1.16h0V30.6l17.95-7.39c.75-.31,.77-.61,.05-1Z"/><path class="e" d="M54.46,36.46c-15.58,3.97-36.05-1.94-36.89-9.97-.03-1.74,.11-3.49,.43-5.21l-.43,.16L.6,27.83c-.76,.29-.79,.6-.12,1.04l7.46,4.88h0l1.05,.69h0l2.65,1.72c3.24,2.12,9.17,5.47,10.21,6.03l-.07,.19,5.95,4.56s.7,.62,1.05,.44l25.83-10.64-.16-.29Z"/><polygon class="d" points="66.12 32.02 67.28 31.54 66.12 32.02 66.12 32.02"/><polygon class="d" points="71.53 29.79 71.88 29.65 71.88 29.65 71.53 29.79"/><polygon class="d" points="69.57 30.6 69.57 30.6 71.53 29.79 69.57 30.6"/><polygon class="d" points="67.28 31.54 69.12 30.79 69.12 30.79 67.28 31.54"/><path class="e" d="M71.53,29.79l.35-.14h0l15.64-6.44c.75-.31,.77-.61,.05-1l-16.93-9.18-.1,.22c-.62,1.34-1.19,3.72-1.34,4.13l-.21-.05c0,2.14,.57,3.32,.57,8.66h0s0,3.25-6.38,6.92l.16,.25,2.77-1.14h0l1.17-.48,1.84-.76h0l.44-.18h0l1.96-.81Z"/></g></g></g></svg>