<?xml version="1.0" encoding="UTF-8"?><svg xmlns="http://www.w3.org/2000/svg" viewBox="0 0 266.07 144.47"><defs><style>.d{fill:#4d5f80;}.e{fill:#000f9f;}</style></defs><g id="a"/><g id="b"><g id="c"><g><g><path class="e" d="M87.84,143.83h-5.83c-.32,0-.44-.13-.44-.51v-7.92c0-4.5,.38-9.57,.38-9.89h-.19c0,.13-.44,2.54-1.21,4.31l-3.93,9.51c-.06,.38-.44,.51-.7,.51h-3.87c-.32,0-.63-.13-.82-.51l-3.8-9.63c-.7-1.77-1.27-4.06-1.33-4.18h-.13c0,.32,.44,5.2,.44,9.83v7.99c0,.38-.13,.51-.51,.51h-5.9c-.32,0-.44-.13-.44-.51v-30.74c0-.38,.13-.51,.44-.51h6.15c.25,0,.38,.06,.51,.32l6.66,16.42c.38,.95,.57,1.9,.63,1.97h.19c0-.06,.32-1.08,.63-1.97l6.47-16.42c.13-.25,.32-.32,.57-.32h6.02c.32,0,.51,.13,.51,.51v30.74c0,.38-.19,.51-.51,.51Z"/><path class="e" d="M117.95,143.83h-5.39c-.44,0-.63-.13-.63-.51,0-.51-.13-.82-.44-.82-.19,0-.38,.06-.57,.19-1.39,.76-2.66,1.14-3.87,1.14h-2.41c-5.01,0-8.94-3.42-8.94-8.49v-.32c0-5.2,3.93-8.49,8.94-8.49h6.09c.44,0,.63-.25,.63-.63v-.76c0-2.47-2.03-4.31-4.63-4.31-1.52,0-3.11,.95-4.63,3.61-.13,.25-.32,.38-.51,.38-.25,0-.51-.19-.76-.32l-4.82-2.54c-.25-.13-.38-.25-.38-.44,0-.32,.7-1.58,1.33-2.54,2.03-3.04,4.88-4.82,9.76-4.82,7.23,0,11.85,4.56,11.85,11.16v17.88c0,.44-.19,.63-.63,.63Zm-6.59-11.22h-6.72c-.95,0-1.71,.82-1.71,1.77v.95c0,1.01,.7,1.84,1.71,1.84h2.41c2.03,0,3.99-1.71,4.31-3.55v-1.01Z"/><path class="e" d="M139.94,122.72c-.38,0-.95-.57-2.28-.57-2.6,0-4.56,1.9-4.56,4.44v16.61c0,.44-.19,.63-.63,.63h-5.96c-.44,0-.63-.19-.63-.63v-27.76c0-.44,.19-.63,.63-.63h5.39c.44,0,.63,.06,.63,.57v.89c0,.38,.25,.63,.51,.63s.32-.06,.44-.19c.63-.7,2.79-1.9,4.82-1.9,.63,0,1.27,.06,1.77,.19,.32,.06,.51,.32,.51,.63v6.4c0,.44-.32,.7-.63,.7Z"/><path class="e" d="M166.94,122.03l-4.82,2.35c-.25,.13-.44,.25-.7,.25-.19,0-.38-.13-.51-.38-.95-2.41-2.79-3.61-4.63-3.61h-1.84c-2.41,0-3.49,.89-3.49,2.41,0,2.41,3.49,2.28,6.91,3.04,4.56,.95,9.32,2.54,9.32,8.3,0,5.39-3.74,10.08-10.9,10.08h-1.84c-5.2,0-8.05-2.22-9.83-5.01-.63-1.01-1.14-2.09-1.14-2.41,0-.19,.13-.38,.38-.51l4.56-2.22c.38-.19,.76-.38,.95-.38s.38,.13,.51,.44c.95,2.41,2.72,3.61,4.56,3.61h1.84c2.41,0,3.68-1.33,3.68-2.73,0-2.41-3.49-2.22-6.97-2.92-4.56-.89-9.19-2.47-9.19-8.37,0-6.21,4.94-9.83,10.65-9.83h1.84c5.07,0,7.92,2.03,9.7,4.69,.63,.95,1.33,2.35,1.33,2.66,0,.19-.13,.38-.38,.51Z"/><path class="e" d="M195.15,131.15h-15.09c-.44,0-.63,.19-.63,.63v1.46c0,2.47,1.97,4.56,4.56,4.56,1.65,0,3.36-1.01,4.5-3.74,.13-.25,.32-.38,.51-.38s.57,.19,1.08,.44l4.75,2.35c.25,.13,.38,.32,.38,.51,0,.25-.44,1.08-.95,1.9-1.97,3.23-4.75,5.58-10.27,5.58-7.23,0-11.85-4.63-11.85-11.22v-7.86c0-5.26,4.63-11.22,11.85-11.22s11.79,5.96,11.79,11.22v5.14c0,.44-.19,.63-.63,.63Zm-11.16-10.33c-3.11,0-4.5,2.85-4.5,3.68,0,.32,.25,.57,.7,.57h7.54c.44,0,.7-.25,.7-.57,0-.76-1.27-3.68-4.44-3.68Z"/><path class="e" d="M205.16,111.76c-2.28,0-4.25-1.97-4.25-4.25s1.97-4.25,4.25-4.25,4.25,1.97,4.25,4.25-1.97,4.25-4.25,4.25Zm2.98,32.07h-5.96c-.44,0-.63-.19-.63-.63v-27.76c0-.44,.19-.63,.63-.63h5.96c.44,0,.63,.19,.63,.63v27.76c0,.44-.19,.63-.63,.63Z"/><path class="e" d="M222.08,143.83h-5.96c-.44,0-.63-.19-.63-.63v-38.67c0-.44,.19-.63,.63-.63h5.96c.44,0,.63,.19,.63,.63v38.67c0,.44-.19,.63-.63,.63Z"/><path class="e" d="M236.03,143.83h-5.96c-.44,0-.63-.19-.63-.63v-38.67c0-.44,.19-.63,.63-.63h5.96c.44,0,.63,.19,.63,.63v38.67c0,.44-.19,.63-.63,.63Z"/><path class="e" d="M265.44,131.15h-15.09c-.44,0-.63,.19-.63,.63v1.46c0,2.47,1.97,4.56,4.56,4.56,1.65,0,3.36-1.01,4.5-3.74,.13-.25,.32-.38,.51-.38s.57,.19,1.08,.44l4.75,2.35c.25,.13,.38,.32,.38,.51,0,.25-.44,1.08-.95,1.9-1.97,3.23-4.75,5.58-10.27,5.58-7.23,0-11.85-4.63-11.85-11.22v-7.86c0-5.26,4.63-11.22,11.85-11.22s11.79,5.96,11.79,11.22v5.14c0,.44-.19,.63-.63,.63Zm-11.16-10.33c-3.11,0-4.5,2.85-4.5,3.68,0,.32,.25,.57,.7,.57h7.54c.44,0,.7-.25,.7-.57,0-.76-1.27-3.68-4.44-3.68Z"/></g><g><path class="d" d="M24.91,97.68c-1.9,2.98-4.75,5.14-10.02,5.14h-3.11c-7.23,0-11.79-4.63-11.79-11.22v-18.76c0-6.59,4.56-11.22,11.79-11.22h3.11c5.26,0,8.11,2.16,10.02,5.13,.57,.95,1.2,1.97,1.2,2.35,0,.19-.13,.32-.38,.44l-5.07,2.6c-.25,.13-.51,.32-.76,.32-.19,0-.38-.13-.51-.44-1.14-2.73-2.79-3.74-4.5-3.74h-3.11c-2.47,0-4.56,2.09-4.56,4.56v18.76c0,2.47,2.09,4.56,4.56,4.56h3.11c1.71,0,3.36-1.01,4.5-3.74,.13-.32,.32-.44,.51-.44,.25,0,.51,.19,.76,.32l5.07,2.6c.25,.13,.38,.25,.38,.44,0,.38-.63,1.4-1.2,2.35Z"/><path class="d" d="M53.05,89.5h-15.09c-.44,0-.63,.19-.63,.63v1.46c0,2.47,1.97,4.56,4.56,4.56,1.65,0,3.36-1.01,4.5-3.74,.13-.25,.32-.38,.51-.38s.57,.19,1.08,.44l4.75,2.35c.25,.13,.38,.32,.38,.51,0,.25-.44,1.08-.95,1.9-1.97,3.23-4.75,5.58-10.27,5.58-7.23,0-11.85-4.63-11.85-11.22v-7.86c0-5.26,4.63-11.22,11.85-11.22s11.79,5.96,11.79,11.22v5.14c0,.44-.19,.63-.63,.63Zm-11.16-10.33c-3.11,0-4.5,2.85-4.5,3.68,0,.32,.25,.57,.7,.57h7.54c.44,0,.7-.25,.7-.57,0-.76-1.27-3.68-4.44-3.68Z"/><path class="d" d="M82.4,102.18h-6.02c-.44,0-.63-.19-.63-.63v-17.24c0-2.54-1.97-4.5-4.5-4.5s-4.56,1.97-4.56,4.5v17.24c0,.44-.19,.63-.63,.63h-5.96c-.44,0-.63-.19-.63-.63v-27.76c0-.44,.19-.63,.63-.63h5.39c.44,0,.63,.13,.63,.57s.19,.7,.51,.7c.19,0,.25-.06,.44-.13,1.33-.7,2.92-1.14,4.18-1.14,7.16,0,11.79,4.56,11.79,11.16v17.24c0,.44-.19,.63-.63,.63Z"/><path class="d" d="M104.27,102.81c-1.21,0-3.49-.38-5.39-1.14-4.37-1.77-6.65-5.45-6.65-10.08v-11.16c0-.44-.19-.63-.63-.63h-3.3c-.44,0-.63-.19-.63-.57s.06-1.71,.13-3.42l7.29-7.73c.19-.19,.44-.38,.76-.38h2.98c.44,0,.63,.19,.63,.63v4.18c0,.44,.19,.63,.63,.63h4.18c.44,0,.63,.19,.63,.63v5.39c0,.44-.19,.63-.63,.63h-4.18c-.44,0-.63,.19-.63,.63v11.16c0,2.28,1.58,4.25,4.88,4.5,.38,0,.57,.25,.57,.63v5.45c0,.44-.25,.63-.63,.63Z"/><path class="d" d="M125.44,81.07c-.38,0-.95-.57-2.28-.57-2.6,0-4.56,1.9-4.56,4.44v16.61c0,.44-.19,.63-.63,.63h-5.96c-.44,0-.63-.19-.63-.63v-27.76c0-.44,.19-.63,.63-.63h5.39c.44,0,.63,.06,.63,.57v.89c0,.38,.25,.63,.51,.63s.32-.06,.44-.19c.63-.7,2.79-1.9,4.82-1.9,.63,0,1.27,.06,1.77,.19,.32,.06,.51,.32,.51,.63v6.4c0,.44-.32,.7-.63,.7Z"/><path class="d" d="M152.18,102.18h-5.39c-.44,0-.63-.13-.63-.51,0-.51-.13-.82-.44-.82-.19,0-.38,.06-.57,.19-1.39,.76-2.66,1.14-3.87,1.14h-2.41c-5.01,0-8.94-3.42-8.94-8.49v-.32c0-5.2,3.93-8.49,8.94-8.49h6.09c.44,0,.63-.25,.63-.63v-.76c0-2.47-2.03-4.31-4.63-4.31-1.52,0-3.11,.95-4.63,3.61-.13,.25-.32,.38-.51,.38-.25,0-.51-.19-.76-.32l-4.82-2.54c-.25-.13-.38-.25-.38-.44,0-.32,.7-1.58,1.33-2.54,2.03-3.04,4.88-4.82,9.76-4.82,7.23,0,11.85,4.56,11.85,11.16v17.88c0,.44-.19,.63-.63,.63Zm-6.59-11.22h-6.72c-.95,0-1.71,.82-1.71,1.77v.95c0,1.01,.7,1.84,1.71,1.84h2.41c2.03,0,3.99-1.71,4.31-3.55v-1.01Z"/><path class="d" d="M166.06,102.18h-5.96c-.44,0-.63-.19-.63-.63V62.88c0-.44,.19-.63,.63-.63h5.96c.44,0,.63,.19,.63,.63v38.67c0,.44-.19,.63-.63,.63Z"/><path class="d" d="M195.47,89.5h-15.09c-.44,0-.63,.19-.63,.63v1.46c0,2.47,1.97,4.56,4.56,4.56,1.65,0,3.36-1.01,4.5-3.74,.13-.25,.32-.38,.51-.38s.57,.19,1.08,.44l4.75,2.35c.25,.13,.38,.32,.38,.51,0,.25-.44,1.08-.95,1.9-1.97,3.23-4.75,5.58-10.27,5.58-7.23,0-11.85-4.63-11.85-11.22v-7.86c0-5.26,4.63-11.22,11.85-11.22s11.79,5.96,11.79,11.22v5.14c0,.44-.19,.63-.63,.63Zm-11.16-10.33c-3.11,0-4.5,2.85-4.5,3.68,0,.32,.25,.57,.7,.57h7.54c.44,0,.7-.25,.7-.57,0-.76-1.27-3.68-4.44-3.68Z"/></g><path class="d" d="M70.68,47.39l25.83-10.64-.16-.29c-15.58,3.97-36.05-1.94-36.89-9.97-.13-6.82,2.41-13.68,7.61-18.88,4.07-4.07,9.15-6.51,14.44-7.31l.09-.3h-20.99c-.81,0-1.16,.35-1.16,1.16h0V21.45l-16.97,6.39c-.76,.29-.79,.6-.12,1.04l7.46,4.88h0l1.05,.69h0l2.65,1.72c3.24,2.12,9.17,5.47,10.21,6.03l-.07,.19c-.41-.09-2.59-.87-3.97-1.08l-.25-.04v9.57c0,.81,.35,1.16,1.16,1.16h20.99l-.09-.3c-3.82-.58-7.53-2.02-10.83-4.31Z"/><path class="d" d="M129.46,22.22l-16.93-9.18-.1,.22c-.62,1.34-1.19,3.72-1.34,4.13l-.21-.05c.1-1.24,.57-8.42,.57-12.49V1.16c0-.81-.35-1.16-1.16-1.16h-20.99l.09,.3c5.28,.81,10.37,3.24,14.44,7.31,5.07,5.07,7.61,11.72,7.61,18.37h0s0,3.25-6.38,6.92l.16,.25,5.77-2.38c-.93,4.98-3.32,9.75-7.17,13.6-4.07,4.07-9.15,6.51-14.44,7.31l-.09,.3h20.99c.81,0,1.16-.35,1.16-1.16h0V30.6l17.95-7.39c.75-.31,.77-.61,.05-1Z"/><path class="e" d="M96.35,36.46c-15.58,3.97-36.05-1.94-36.89-9.97-.03-1.74,.11-3.49,.43-5.21l-.43,.16-16.97,6.39c-.76,.29-.79,.6-.12,1.04l7.46,4.88h0l1.05,.69h0l2.65,1.72c3.24,2.12,9.17,5.47,10.21,6.03l-.07,.19,5.95,4.56s.7,.62,1.05,.44l25.83-10.64-.16-.29Z"/><polygon class="e" points="108.01 32.02 109.17 31.54 108.01 32.02 108.01 32.02"/><polygon class="e" points="113.42 29.79 113.77 29.65 113.77 29.65 113.42 29.79"/><polygon class="e" points="111.46 30.6 111.46 30.6 113.42 29.79 111.46 30.6"/><polygon class="e" points="109.17 31.54 111.01 30.79 111.01 30.79 109.17 31.54"/><path class="e" d="M113.42,29.79l.35-.14h0l15.64-6.44c.75-.31,.77-.61,.05-1l-16.93-9.18-.1,.22c-.62,1.34-1.19,3.72-1.34,4.13l-.21-.05c0,2.14,.57,3.32,.57,8.66h0s0,3.25-6.38,6.92l.16,.25,2.77-1.14h0l1.17-.48,1.84-.76h0l.44-.18h0l1.96-.81Z"/></g></g></g></svg>